<svg xmlns="http://www.w3.org/2000/svg" width="512" height="512" viewBox="0 0 24 24" fill="none">
  <defs>
    <radialGradient id="irisGrad" cx="50%" cy="48%">
      <stop offset="0%" stop-color="#FFB800" />
      <stop offset="40%" stop-color="#F59E0B" />
      <stop offset="75%" stop-color="#D97706" />
      <stop offset="100%" stop-color="#92400E" />
    </radialGradient>
    <radialGradient id="eyeGlow" cx="50%" cy="50%">
      <stop offset="0%" stop-color="#F59E0B" stop-opacity="0.2" />
      <stop offset="100%" stop-color="#F59E0B" stop-opacity="0" />
    </radialGradient>
    <radialGradient id="pupilGrad" cx="45%" cy="42%">
      <stop offset="0%" stop-color="#1a1a2e" />
      <stop offset="100%" stop-color="#0a0a0f" />
    </radialGradient>
  </defs>
  <circle cx="12" cy="12" r="11.5" fill="url(#eyeGlow)" />
  <circle cx="12" cy="12" r="10.5" stroke="#2a2a35" stroke-width="1.8" fill="none" />
  <circle cx="12" cy="12" r="9" fill="url(#irisGrad)" />
  <line x1="16.5" y1="12" x2="20.5" y2="12" stroke="#CC8800" stroke-width="0.5" opacity="0.6" />
  <line x1="16.37" y1="12.88" x2="20.33" y2="13.66" stroke="#CC8800" stroke-width="0.5" opacity="0.6" />
  <line x1="15.98" y1="13.72" x2="19.7" y2="15.22" stroke="#CC8800" stroke-width="0.5" opacity="0.6" />
  <line x1="15.35" y1="14.46" x2="18.68" y2="16.59" stroke="#CC8800" stroke-width="0.5" opacity="0.6" />
  <line x1="14.5" y1="15.06" x2="17.33" y2="17.71" stroke="#CC8800" stroke-width="0.5" opacity="0.6" />
  <line x1="13.49" y1="15.47" x2="15.73" y2="18.51" stroke="#CC8800" stroke-width="0.5" opacity="0.6" />
  <line x1="12.37" y1="15.67" x2="13.95" y2="18.95" stroke="#CC8800" stroke-width="0.5" opacity="0.6" />
  <line x1="11.2" y1="15.65" x2="12.09" y2="19.01" stroke="#CC8800" stroke-width="0.5" opacity="0.6" />
  <line x1="10.04" y1="15.4" x2="10.23" y2="18.68" stroke="#CC8800" stroke-width="0.5" opacity="0.6" />
  <line x1="8.95" y1="14.95" x2="8.46" y2="17.99" stroke="#CC8800" stroke-width="0.5" opacity="0.6" />
  <line x1="7.98" y1="14.33" x2="6.86" y2="16.99" stroke="#CC8800" stroke-width="0.5" opacity="0.6" />
  <line x1="7.18" y1="13.56" x2="5.49" y2="15.73" stroke="#CC8800" stroke-width="0.5" opacity="0.6" />
  <line x1="6.58" y1="12.68" x2="4.41" y2="14.28" stroke="#CC8800" stroke-width="0.5" opacity="0.6" />
  <line x1="6.2" y1="11.74" x2="3.66" y2="12.71" stroke="#CC8800" stroke-width="0.5" opacity="0.6" />
  <line x1="6.07" y1="10.77" x2="3.28" y2="11.07" stroke="#CC8800" stroke-width="0.5" opacity="0.6" />
  <line x1="6.18" y1="9.82" x2="3.28" y2="9.45" stroke="#CC8800" stroke-width="0.5" opacity="0.6" />
  <line x1="6.54" y1="8.93" x2="3.66" y2="7.91" stroke="#CC8800" stroke-width="0.5" opacity="0.6" />
  <line x1="7.12" y1="8.14" x2="4.41" y2="6.52" stroke="#CC8800" stroke-width="0.5" opacity="0.6" />
  <line x1="7.9" y1="7.48" x2="5.49" y2="5.32" stroke="#CC8800" stroke-width="0.5" opacity="0.6" />
  <line x1="8.82" y1="6.98" x2="6.86" y2="4.35" stroke="#CC8800" stroke-width="0.5" opacity="0.6" />
  <line x1="9.84" y1="6.67" x2="8.46" y2="3.61" stroke="#CC8800" stroke-width="0.5" opacity="0.6" />
  <line x1="10.91" y1="6.56" x2="10.23" y2="3.12" stroke="#CC8800" stroke-width="0.5" opacity="0.6" />
  <line x1="11.98" y1="6.66" x2="12.09" y2="2.91" stroke="#CC8800" stroke-width="0.5" opacity="0.6" />
  <line x1="13.01" y1="6.97" x2="13.95" y2="2.99" stroke="#CC8800" stroke-width="0.5" opacity="0.6" />
  <line x1="13.94" y1="7.47" x2="15.73" y2="3.38" stroke="#CC8800" stroke-width="0.5" opacity="0.6" />
  <line x1="14.73" y1="8.13" x2="17.33" y2="4.07" stroke="#CC8800" stroke-width="0.5" opacity="0.6" />
  <line x1="15.34" y1="8.93" x2="18.68" y2="5.05" stroke="#CC8800" stroke-width="0.5" opacity="0.6" />
  <line x1="15.75" y1="9.82" x2="19.7" y2="6.27" stroke="#CC8800" stroke-width="0.5" opacity="0.6" />
  <line x1="15.94" y1="10.77" x2="20.33" y2="7.66" stroke="#CC8800" stroke-width="0.5" opacity="0.6" />
  <line x1="15.91" y1="11.73" x2="20.5" y2="9.14" stroke="#CC8800" stroke-width="0.5" opacity="0.6" />
  <line x1="15.65" y1="12.66" x2="20.24" y2="10.64" stroke="#CC8800" stroke-width="0.5" opacity="0.6" />
  <circle cx="12" cy="12" r="5" stroke="#FFD060" stroke-width="0.4" fill="none" opacity="0.5" />
  <circle cx="12" cy="12" r="4.2" fill="url(#pupilGrad)" />
  <circle cx="12" cy="12" r="3" fill="#050508" />
  <circle cx="13.2" cy="10.5" r="1.1" fill="#FFF" opacity="0.75" />
  <circle cx="10.5" cy="13.5" r="0.45" fill="#FFF" opacity="0.35" />
</svg>
